<svg width="209" height="43" viewBox="0 0 209 43" fill="none" xmlns="http://www.w3.org/2000/svg">
<path d="M2 41.33C24.5625 26.9729 49.7541 17.2443 76.11 12.71" stroke="#D0D0D0" stroke-width="1.42" stroke-linecap="round" stroke-linejoin="round"/>
<path d="M3.87156 35.87L1.10156 41.92L7.76156 41.98" stroke="#D0D0D0" stroke-width="1.42" stroke-miterlimit="22.93"/>
<path d="M206.628 41.33C184.062 26.9728 158.867 17.2443 132.508 12.71" stroke="#D0D0D0" stroke-width="1.42" stroke-linecap="round" stroke-linejoin="round"/>
<path d="M200.898 41.98L207.558 41.92L204.788 35.86" stroke="#D0D0D0" stroke-width="1.42" stroke-miterlimit="22.93"/>
<path d="M113.939 19.0784L109.744 11.2002C109.68 11.0803 109.571 10.9903 109.44 10.9501C109.309 10.9098 109.167 10.9225 109.046 10.9854C108.924 11.0483 108.833 11.1562 108.792 11.2855C108.751 11.4147 108.764 11.5546 108.828 11.6745L112.424 18.4289L107.343 16.7428C107.266 16.7166 107.183 16.7091 107.102 16.7209C107.02 16.7327 106.943 16.7636 106.876 16.8108C106.81 16.8581 106.756 16.9204 106.718 16.9926C106.681 17.0648 106.662 17.1448 106.662 17.2258V22.9848H101.336V17.2238C101.337 17.1427 101.317 17.0628 101.28 16.9906C101.243 16.9184 101.189 16.8561 101.122 16.8088C101.055 16.7615 100.978 16.7307 100.897 16.7189C100.816 16.707 100.733 16.7146 100.655 16.7408L95.5745 18.4269L104 2.60639L106.903 8.05814C106.967 8.17788 107.076 8.26772 107.207 8.30791C107.338 8.34811 107.479 8.33535 107.601 8.27245C107.722 8.20955 107.813 8.10166 107.854 7.97251C107.894 7.84337 107.882 7.70355 107.818 7.58381L104.457 1.27481C104.414 1.19201 104.348 1.12258 104.268 1.07411C104.187 1.02564 104.094 1 104 1C103.905 1 103.813 1.02564 103.732 1.07411C103.652 1.12258 103.586 1.19201 103.543 1.27481L94.0596 19.0779C94.0114 19.168 93.9917 19.2703 94.0032 19.3716C94.0147 19.4728 94.0567 19.5684 94.1239 19.6457C94.1326 19.6563 94.1419 19.6665 94.1517 19.6762C94.2199 19.7431 94.3055 19.79 94.3991 19.8116C94.4927 19.8332 94.5906 19.8287 94.6817 19.7986L100.303 17.9322V23.4922C100.303 23.6268 100.357 23.756 100.454 23.8513C100.55 23.9465 100.681 24 100.818 24H107.181C107.318 24 107.449 23.9465 107.545 23.8513C107.642 23.756 107.696 23.6268 107.696 23.4922V17.9322L113.317 19.7976C113.414 19.8311 113.52 19.8347 113.62 19.8079C113.72 19.7811 113.81 19.7251 113.877 19.6473C113.944 19.5695 113.986 19.4735 113.997 19.3718C114.008 19.2701 113.988 19.1675 113.939 19.0774L113.939 19.0784Z" fill="#D0D0D0" stroke="#D0D0D0" stroke-width="0.5"/>
</svg>
