<svg width="143" height="48" viewBox="0 0 143 48" fill="none" xmlns="http://www.w3.org/2000/svg">
<rect x="0.5" width="142" height="48" rx="6" fill="black"/>
<path d="M33.9609 25.0815C33.9609 29.9672 36.3797 32.4489 41.1654 32.4489C45.9362 32.4489 48.3476 29.9672 48.3476 25.0815C48.3476 20.1773 45.9362 17.6956 41.1654 17.6956C36.3797 17.6956 33.9609 20.1773 33.9609 25.0815ZM37.465 25.0815C37.465 21.8626 38.4984 20.5588 41.1357 20.5588C43.8286 20.5588 44.8398 21.8182 44.8398 25.0815C44.8398 28.304 43.8027 29.6079 41.1357 29.6079C38.4614 29.6079 37.465 28.3559 37.465 25.0815Z" fill="white"/>
<path d="M77.4531 25.0815C77.4531 29.9672 79.8867 32.4489 84.665 32.4489C89.4284 32.4489 91.8435 29.9672 91.8435 25.0815C91.8435 20.1773 89.4284 17.6956 84.665 17.6956C79.883 17.6956 77.4531 20.1773 77.4531 25.0815ZM80.9683 25.0815C80.9683 21.8626 81.9943 20.5588 84.6316 20.5588C87.3282 20.5588 88.3283 21.8182 88.3283 25.0815C88.3283 28.304 87.2912 29.6079 84.6316 29.6079C81.961 29.6079 80.9683 28.3559 80.9683 25.0815Z" fill="white"/>
<path d="M117.609 14.6471V28.0262C117.609 30.7524 119.247 32.197 122.351 32.197H125.377C126.155 32.197 126.503 31.5044 126.503 30.8376C126.503 30.1672 126.155 29.4745 125.377 29.4745H123.621C122.017 29.4745 121.18 29.3745 121.18 27.4743V21.0033H125.132C125.91 21.0033 126.258 20.3069 126.258 19.6328C126.258 18.9698 125.91 18.2734 125.132 18.2734L121.18 18.2808V14.6471C121.18 13.7248 120.524 13.1692 119.454 13.1692C118.591 13.1692 117.609 13.5581 117.609 14.6471Z" fill="white"/>
<path d="M51.0156 14.6471V28.0262C51.0156 30.7524 52.6565 32.197 55.7754 32.197H58.8016C59.572 32.197 59.9165 31.5044 59.9165 30.8376C59.9165 30.1672 59.572 29.4745 58.8016 29.4745H57.0348C55.4309 29.4745 54.5938 29.3745 54.5938 27.4743V21.0033H58.5423C59.3202 21.0033 59.6684 20.3069 59.6684 19.6328C59.6684 18.9698 59.3202 18.2734 58.5423 18.2734H54.5938V14.6471C54.5938 13.7248 53.9493 13.1692 52.864 13.1692C52.0083 13.1692 51.0156 13.5581 51.0156 14.6471Z" fill="white"/>
<path d="M107.087 17.9956C102.986 17.9956 101.234 19.6254 101.234 23.4481V30.6932C101.234 31.6044 101.901 32.1378 103.023 32.1378C104.138 32.1378 104.809 31.6007 104.809 30.7006V23.6999C104.809 21.6553 105.164 21.0182 107.383 21.0182H108.42C110.639 21.0182 111.006 21.6553 111.006 23.6999V30.6932C110.991 31.6044 111.669 32.1378 112.784 32.1378C113.902 32.1378 114.569 31.6007 114.569 30.7006V23.4443C114.569 19.6217 112.817 17.9919 108.713 17.9919H107.087V17.9956Z" fill="white"/>
<path d="M94.5078 19.5366V30.6229C94.5078 31.7601 95.4412 32.1712 96.3154 32.1712C97.1896 32.1712 98.1119 31.7601 98.1119 30.6229V19.5366C98.1119 18.3958 97.1896 17.9846 96.3043 17.9846C95.4412 17.9846 94.5078 18.3958 94.5078 19.5366Z" fill="white"/>
<path d="M94.2812 14.1138C94.2812 15.2435 95.1962 16.1547 96.3 16.1547C97.426 16.1547 98.3298 15.2435 98.3298 14.1138C98.3298 12.9877 97.4297 12.0654 96.3 12.0654C95.1962 12.0654 94.2812 12.9877 94.2812 14.1138Z" fill="white"/>
<path d="M64.0386 18.4142C62.6533 18.7216 61.8828 19.5921 61.8828 21.1145V36.4568C61.8828 37.5421 62.7977 37.9347 63.6645 37.9347C64.5275 37.9347 65.4498 37.5421 65.4498 36.4568V31.9971C66.2944 32.1823 67.0463 32.2675 68.0353 32.2675C70.217 32.2675 71.3504 31.897 72.5913 31.1562C74.4248 30.0598 75.5101 28.0004 75.5101 25.2482C75.5101 20.4514 73.0617 18.0142 68.2057 18.0142C66.8907 18.0142 65.2683 18.1364 64.0386 18.4142ZM65.4461 29.2338V21.17C66.1758 21.0145 67.0907 20.9367 67.9649 20.9367C70.7911 20.9367 71.9283 21.9923 71.9283 24.9667C71.9283 28.3115 70.9763 29.4672 67.9093 29.4672C67.0722 29.4709 66.0832 29.3894 65.4461 29.2338Z" fill="white"/>
<path d="M27.7382 14.2248V20.7218H20.0744V14.2248C20.0744 13.3062 19.4299 12.7617 18.3446 12.7617C17.4964 12.7617 16.5 13.1432 16.5 14.2248V30.6783C16.5 31.597 17.1519 32.1489 18.2409 32.1489C19.0966 32.1489 20.0744 31.7636 20.0744 30.6783V23.9814H27.7382V30.6746C27.7382 31.5933 28.3901 32.1452 29.4754 32.1452C30.3199 32.1452 31.3163 31.7599 31.3163 30.6746V14.2248C31.3163 13.3062 30.6607 12.7617 29.5717 12.7617C28.7272 12.7617 27.7382 13.1432 27.7382 14.2248Z" fill="white"/>
</svg>
