<svg width="139" height="37" viewBox="0 0 139 37" fill="none" xmlns="http://www.w3.org/2000/svg">
<path d="M2.59375 35.4775C17.4065 26.0518 33.9453 19.6648 51.2485 16.6879" stroke="#D0D0D0" stroke-width="1.42" stroke-linecap="round" stroke-linejoin="round"/>
<path d="M3.81856 31.8928L2 35.8648L6.37243 35.9042" stroke="#D0D0D0" stroke-width="1.42" stroke-miterlimit="22.93"/>
<path d="M136.935 35.4775C122.12 26.0517 105.579 19.6648 88.2734 16.6879" stroke="#D0D0D0" stroke-width="1.42" stroke-linecap="round" stroke-linejoin="round"/>
<path d="M133.172 35.9041L137.544 35.8647L135.726 31.8862" stroke="#D0D0D0" stroke-width="1.42" stroke-miterlimit="22.93"/>
<path d="M68.5686 3.18181V1" stroke="#D0D0D0" stroke-linecap="round" stroke-linejoin="round"/>
<path d="M63.1081 6.10852H65.3639" stroke="#D0D0D0" stroke-linecap="round" stroke-linejoin="round"/>
<path d="M71.7831 6.10852H74.0288" stroke="#D0D0D0" stroke-linecap="round" stroke-linejoin="round"/>
<path d="M70.8946 3.98962L72.7256 2.19592" stroke="#D0D0D0" stroke-linecap="round" stroke-linejoin="round"/>
<path d="M66.2468 3.98962L64.4158 2.19592" stroke="#D0D0D0" stroke-linecap="round" stroke-linejoin="round"/>
<path d="M70.086 14.542V12.9686C70.086 12.5513 70.2459 12.1511 70.5305 11.856C70.815 11.5609 71.201 11.3951 71.6034 11.3951C72.0058 11.3951 72.3918 11.5609 72.6764 11.856C72.9609 12.1511 73.1208 12.5513 73.1208 12.9686V15.5909" stroke="#D0D0D0" stroke-linecap="round" stroke-linejoin="round"/>
<path d="M76.1555 16.1153V14.0174C76.1555 13.6001 75.9957 13.1999 75.7111 12.9048C75.4265 12.6097 75.0406 12.444 74.6382 12.444C74.2357 12.444 73.8498 12.6097 73.5652 12.9048C73.2806 13.1999 73.1208 13.6001 73.1208 14.0174V15.5908" stroke="#D0D0D0" stroke-linecap="round" stroke-linejoin="round"/>
<path d="M67.0513 18.7378V6.67492C67.0513 6.25762 67.2111 5.85742 67.4957 5.56235C67.7803 5.26727 68.1662 5.1015 68.5686 5.1015C68.9711 5.1015 69.357 5.26727 69.6416 5.56235C69.9262 5.85742 70.086 6.25762 70.086 6.67492V14.542" stroke="#D0D0D0" stroke-linecap="round" stroke-linejoin="round"/>
<path d="M67.6131 25C67.3225 24.2951 66.8956 23.6597 66.3587 23.1328C64.0523 20.3112 62.1707 14.8776 62.1707 14.8776C62.0084 14.5994 61.9593 14.2658 62.0343 13.95C62.1092 13.6343 62.302 13.3624 62.5703 13.1941C62.8386 13.0258 63.1604 12.9749 63.4649 13.0526C63.7693 13.1303 64.0316 13.3302 64.1939 13.6084L64.9829 15.0664L67.0567 18.7377" stroke="#D0D0D0" stroke-linecap="round" stroke-linejoin="round"/>
<path d="M76.2769 24.9999C76.5051 23.6631 76.9244 22.3691 77.5212 21.1608C78.2198 19.5794 78.6771 17.8949 78.8767 16.1678C78.8767 15.2972 78.5125 14.5419 77.6729 14.5419C77.2705 14.5419 76.8845 14.7077 76.6 15.0028C76.3154 15.2978 76.1555 15.6981 76.1555 16.1154" stroke="#D0D0D0" stroke-linecap="round" stroke-linejoin="round"/>
<path d="M76.1555 16.1154V16.6399" stroke="#D0D0D0" stroke-linecap="round" stroke-linejoin="round"/>
</svg>
